<?xml version="1.0" standalone="no"?>
<!DOCTYPE svg PUBLIC "-//W3C//DTD SVG 20010904//EN"
 "http://www.w3.org/TR/2001/REC-SVG-20010904/DTD/svg10.dtd">
<svg version="1.0" xmlns="http://www.w3.org/2000/svg"
 width="1151.000000pt" height="231.000000pt" viewBox="0 0 1151.000000 231.000000"
 preserveAspectRatio="xMidYMid meet">

<g transform="translate(0.000000,231.000000) scale(0.100000,-0.100000)"
fill="#000000" stroke="none">
<path d="M177 2296 c-138 -49 -209 -193 -162 -327 36 -101 114 -159 225 -167
61 -4 76 -1 124 22 101 50 152 136 144 247 -13 171 -174 281 -331 225z"/>
<path d="M590 2261 c-6 -12 -10 -97 -10 -210 0 -178 1 -192 20 -211 19 -19 33
-20 213 -20 139 0 198 4 210 13 16 11 17 34 15 227 l-3 215 -217 3 c-207 2
-218 1 -228 -17z"/>
<path d="M1150 2261 c-6 -12 -10 -97 -10 -210 0 -178 1 -192 20 -211 19 -19
33 -20 213 -20 139 0 198 4 210 13 16 11 17 34 15 227 l-3 215 -217 3 c-207 2
-218 1 -228 -17z"/>
<path d="M47 1717 c-16 -11 -17 -34 -15 -227 l3 -215 215 -3 c193 -2 216 -1
227 15 9 12 13 71 13 210 0 180 -1 194 -20 213 -19 19 -33 20 -213 20 -139 0
-198 -4 -210 -13z"/>
<path d="M600 1710 c-19 -19 -20 -33 -20 -213 0 -139 4 -198 13 -210 11 -16
34 -17 227 -15 l215 3 3 215 c2 193 1 216 -15 227 -12 9 -71 13 -210 13 -180
0 -194 -1 -213 -20z"/>
<path d="M47 1157 c-16 -11 -17 -34 -15 -227 l3 -215 215 -3 c193 -2 216 -1
227 15 9 12 13 71 13 210 0 180 -1 194 -20 213 -19 19 -33 20 -213 20 -139 0
-198 -4 -210 -13z"/>
<path d="M600 1150 c-19 -19 -20 -33 -20 -213 0 -139 4 -198 13 -210 11 -16
34 -17 227 -15 l215 3 3 215 c2 193 1 216 -15 227 -12 9 -71 13 -210 13 -180
0 -194 -1 -213 -20z"/>
<path d="M1162 1154 c-21 -15 -22 -20 -22 -210 0 -116 4 -203 10 -215 10 -18
23 -19 218 -19 149 0 211 3 220 12 9 9 12 71 12 220 0 195 -1 208 -19 218 -12
6 -97 10 -208 10 -154 0 -193 -3 -211 -16z"/>
<path d="M2763 1160 c-49 -16 -83 -63 -83 -117 0 -65 24 -97 102 -138 78 -41
105 -73 89 -104 -6 -10 -23 -22 -38 -25 -25 -6 -100 9 -145 29 -16 6 -18 1
-18 -39 0 -41 3 -48 28 -57 15 -6 59 -12 97 -12 110 -1 165 37 172 120 6 66
-18 100 -98 142 -103 54 -120 79 -81 114 23 21 57 21 110 3 l40 -15 15 37 15
37 -31 14 c-41 17 -133 23 -174 11z"/>
<path d="M4994 1151 c-75 -34 -114 -111 -114 -221 0 -67 12 -112 42 -156 28
-41 62 -61 126 -75 128 -27 238 39 262 157 25 118 -9 233 -82 281 -54 36 -173
43 -234 14z m181 -94 c77 -77 50 -250 -44 -278 -82 -25 -151 43 -151 148 0
105 43 162 124 163 30 0 45 -7 71 -33z"/>
<path d="M1960 930 l0 -230 50 0 50 0 0 230 0 230 -50 0 -50 0 0 -230z"/>
<path d="M2170 930 l0 -230 47 0 46 0 -6 178 c-5 118 -4 172 3 162 5 -8 52
-88 102 -177 l93 -163 63 0 62 0 0 230 0 230 -46 0 -46 0 4 -170 c2 -129 0
-167 -8 -155 -7 9 -52 85 -100 170 l-89 155 -62 0 -63 0 0 -230z"/>
<path d="M3012 1123 l3 -38 63 -3 62 -3 0 -189 0 -190 50 0 50 0 0 190 0 190
60 0 60 0 0 40 0 40 -176 0 -175 0 3 -37z"/>
<path d="M3440 930 l0 -230 50 0 50 0 0 230 0 230 -50 0 -50 0 0 -230z"/>
<path d="M3612 1123 l3 -38 63 -3 62 -3 0 -189 0 -190 50 0 50 0 0 190 0 190
60 0 60 0 0 40 0 40 -176 0 -175 0 3 -37z"/>
<path d="M4030 983 c0 -198 7 -223 71 -262 73 -44 199 -33 255 23 45 45 54 89
54 264 l0 152 -50 0 -50 0 0 -164 c0 -160 -1 -166 -24 -193 -20 -24 -32 -28
-71 -27 -33 1 -52 7 -68 23 -21 20 -22 32 -25 191 l-3 170 -45 0 -44 0 0 -177z"/>
<path d="M4482 1123 l3 -38 63 -3 62 -3 0 -189 0 -190 50 0 50 0 0 190 0 190
60 0 60 0 0 40 0 40 -176 0 -175 0 3 -37z"/>
<path d="M5590 930 l0 -230 45 0 44 0 3 93 3 92 78 3 77 3 0 34 0 34 -77 3
-78 3 0 60 0 60 83 3 82 3 0 34 0 35 -130 0 -130 0 0 -230z"/>
<path d="M5950 930 l0 -230 135 0 135 0 0 40 0 40 -85 0 -85 0 0 60 0 60 75 0
75 0 0 40 0 40 -75 0 -75 0 0 55 0 55 85 0 85 0 0 35 0 35 -135 0 -135 0 0
-230z"/>
<path d="M6310 931 l0 -231 88 0 c52 0 111 7 143 16 102 30 156 119 147 242
-5 75 -34 129 -87 167 -41 29 -48 30 -167 34 l-124 3 0 -231z m227 134 c51
-34 70 -146 35 -215 -20 -41 -71 -70 -124 -70 l-38 0 0 156 0 157 51 -6 c28
-4 63 -14 76 -22z"/>
<path d="M6800 930 l0 -230 135 0 135 0 0 40 0 40 -85 0 -85 0 0 60 0 60 75 0
75 0 0 40 0 40 -75 0 -75 0 0 55 0 55 85 0 85 0 0 35 0 35 -135 0 -135 0 0
-230z"/>
<path d="M7160 930 l0 -230 50 0 50 0 0 90 c0 88 0 90 24 90 20 0 35 -17 81
-90 l57 -90 107 0 108 0 14 53 14 52 87 3 87 3 16 -56 16 -55 50 0 c27 0 49 3
49 8 0 4 -34 107 -77 230 l-78 222 -61 0 -62 0 -52 -147 c-28 -82 -63 -183
-78 -225 -15 -43 -30 -78 -34 -78 -8 0 -128 175 -128 186 0 3 11 15 25 26 79
62 67 187 -20 224 -22 9 -71 14 -140 14 l-105 0 0 -230z m169 150 c40 -11 51
-24 51 -62 0 -35 -33 -58 -82 -58 l-38 0 0 65 c0 72 3 74 69 55z m455 -84 c14
-46 26 -89 26 -95 0 -7 -22 -11 -55 -11 -36 0 -55 4 -55 12 0 15 49 178 54
178 2 0 15 -38 30 -84z"/>
<path d="M8040 930 l0 -230 140 0 140 0 0 40 0 40 -90 0 -90 0 0 190 0 190
-50 0 -50 0 0 -230z"/>
<path d="M8797 1153 c-12 -11 -8 -991 3 -998 7 -4 10 165 10 499 0 278 -1 506
-3 506 -2 0 -7 -3 -10 -7z"/>
<path d="M9353 1034 c-53 -27 -78 -77 -78 -159 1 -127 50 -177 170 -173 58 3
70 6 73 21 3 15 -2 17 -50 11 -91 -11 -142 28 -154 118 -5 34 -1 56 14 92 28
61 74 83 145 69 40 -8 50 -7 54 5 3 8 0 18 -8 23 -23 15 -131 10 -166 -7z"/>
<path d="M9643 959 c-19 -6 -33 -16 -33 -25 0 -13 6 -15 28 -8 35 10 81 9 91
-2 5 -5 11 -21 15 -36 6 -25 4 -26 -47 -33 -72 -9 -103 -22 -116 -51 -16 -35
-14 -48 10 -78 17 -22 29 -26 69 -26 30 0 52 5 60 15 7 8 16 15 21 15 5 0 9
-7 9 -15 0 -8 7 -15 15 -15 24 0 22 210 -2 238 -21 25 -76 34 -120 21z m97
-159 c0 -41 -31 -70 -75 -70 -28 0 -38 5 -47 26 -11 24 -9 29 15 50 19 17 40
24 68 24 37 0 39 -2 39 -30z"/>
<path d="M9950 963 c-8 -3 -22 -12 -31 -20 -14 -12 -17 -12 -22 2 -4 8 -13 15
-22 15 -13 0 -15 -20 -15 -130 0 -121 1 -130 19 -130 17 0 19 10 23 100 3 107
10 123 60 135 19 5 32 1 47 -14 19 -19 21 -33 21 -121 0 -93 1 -100 20 -100
19 0 20 7 20 98 0 111 13 135 70 135 48 0 55 -14 58 -128 3 -82 7 -105 18
-105 11 0 14 23 14 113 0 97 -3 116 -18 130 -30 28 -73 30 -116 8 -22 -12 -42
-17 -46 -12 -6 11 -56 31 -73 30 -7 0 -19 -3 -27 -6z"/>
<path d="M10410 963 c-8 -3 -22 -12 -31 -20 -14 -12 -17 -12 -22 2 -4 8 -13
15 -22 15 -13 0 -15 -23 -13 -187 3 -170 5 -188 21 -191 15 -3 17 6 17 73 l0
76 22 -15 c26 -18 90 -21 119 -6 61 33 66 188 7 237 -16 14 -78 24 -98 16z
m79 -48 c8 -8 17 -40 19 -72 3 -48 0 -63 -18 -85 -27 -34 -78 -38 -105 -8 -22
24 -31 105 -16 143 18 46 84 58 120 22z"/>
<path d="M10965 963 c-33 -9 -55 -34 -55 -65 0 -33 23 -56 82 -79 23 -9 48
-25 55 -36 12 -18 11 -23 -3 -38 -14 -14 -29 -16 -76 -12 -51 5 -59 3 -56 -11
3 -13 17 -18 68 -20 55 -2 69 1 88 18 28 26 29 73 2 98 -11 10 -38 25 -60 32
-22 7 -48 22 -57 33 -17 18 -17 20 6 38 27 22 34 23 78 10 33 -10 54 2 37 19
-12 12 -83 20 -109 13z"/>
<path d="M10620 856 c0 -89 3 -107 21 -130 17 -21 29 -26 68 -26 25 0 56 7 68
15 19 13 22 13 27 0 3 -8 12 -15 21 -15 13 0 15 20 15 130 0 123 -1 130 -20
130 -18 0 -20 -7 -20 -89 0 -110 -18 -141 -80 -141 -52 0 -60 17 -60 134 0 89
-1 96 -20 96 -19 0 -20 -7 -20 -104z"/>
<path d="M48 599 c-16 -9 -18 -30 -18 -217 0 -149 3 -211 12 -220 9 -9 71 -12
220 -12 195 0 208 1 218 19 6 12 10 97 10 208 0 154 -3 193 -16 211 -15 21
-20 22 -212 22 -115 0 -204 -5 -214 -11z"/>
<path d="M596 588 c-13 -18 -16 -57 -16 -211 0 -111 4 -196 10 -208 10 -18 23
-19 215 -19 112 0 210 3 219 6 14 5 16 34 16 218 0 152 -3 215 -12 224 -9 9
-70 12 -214 12 -198 0 -203 -1 -218 -22z"/>
<path d="M11442 485 c-21 -32 -21 -35 -4 -35 10 0 28 10 39 23 34 38 36 47 11
47 -15 0 -31 -12 -46 -35z"/>
<path d="M3381 471 c-24 -33 -26 -41 -9 -41 14 0 68 50 68 62 0 20 -41 5 -59
-21z"/>
<path d="M9290 325 c0 -168 1 -175 20 -175 18 0 20 7 20 70 l0 70 49 0 c93 0
153 73 122 148 -18 42 -65 62 -145 62 l-66 0 0 -175z m135 131 c39 -17 54 -54
36 -92 -12 -28 -47 -44 -97 -44 l-34 0 0 75 0 75 30 0 c17 0 46 -6 65 -14z"/>
<path d="M1960 305 c0 -168 1 -175 20 -175 18 0 20 7 20 70 l0 70 49 0 c93 0
153 73 122 148 -18 42 -65 62 -145 62 l-66 0 0 -175z m135 131 c39 -17 54 -54
36 -92 -12 -28 -47 -44 -97 -44 l-34 0 0 75 0 75 30 0 c17 0 46 -6 65 -14z"/>
<path d="M9633 409 c-19 -6 -33 -16 -33 -25 0 -13 6 -15 28 -8 35 10 81 9 91
-2 5 -5 11 -21 15 -36 6 -25 4 -26 -47 -33 -72 -9 -103 -22 -116 -51 -16 -35
-14 -48 10 -78 17 -22 29 -26 69 -26 30 0 52 5 60 15 7 8 16 15 21 15 5 0 9
-7 9 -15 0 -8 7 -15 15 -15 24 0 22 210 -2 238 -21 25 -76 34 -120 21z m97
-159 c0 -41 -31 -70 -75 -70 -28 0 -38 5 -47 26 -11 24 -9 29 15 50 19 17 40
24 68 24 37 0 39 -2 39 -30z"/>
<path d="M9950 413 c-8 -3 -25 -14 -36 -25 -21 -19 -21 -19 -27 1 -3 12 -12
21 -21 21 -14 0 -16 -18 -16 -130 0 -121 1 -130 19 -130 17 0 19 10 23 96 3
86 5 98 27 115 13 10 37 19 53 19 23 0 29 4 26 17 -3 19 -23 25 -48 16z"/>
<path d="M10103 409 c-19 -6 -33 -16 -33 -25 0 -13 6 -15 28 -8 35 10 81 9 91
-2 5 -5 11 -21 15 -36 6 -25 4 -26 -47 -33 -72 -9 -103 -22 -116 -51 -16 -35
-14 -48 10 -78 17 -22 29 -26 69 -26 30 0 52 5 60 15 7 8 16 15 21 15 5 0 9
-7 9 -15 0 -8 7 -15 15 -15 24 0 22 210 -2 238 -21 25 -76 34 -120 21z m97
-159 c0 -41 -31 -70 -75 -70 -28 0 -38 5 -47 26 -11 24 -9 29 15 50 19 17 40
24 68 24 37 0 39 -2 39 -30z"/>
<path d="M10415 413 c-11 -3 -27 -12 -36 -19 -14 -13 -17 -13 -22 1 -4 8 -13
15 -22 15 -13 0 -15 -20 -15 -130 0 -123 1 -130 20 -130 18 0 20 7 20 88 0 49
6 98 13 112 17 34 69 48 102 26 24 -16 25 -20 25 -121 0 -98 1 -105 20 -105
19 0 20 7 20 100 0 113 -10 145 -53 160 -31 10 -39 11 -72 3z"/>
<path d="M10683 409 c-19 -6 -33 -16 -33 -25 0 -13 6 -15 28 -8 35 10 81 9 91
-2 5 -5 11 -21 15 -36 6 -25 4 -26 -47 -33 -72 -9 -103 -22 -116 -51 -16 -35
-14 -48 10 -78 17 -22 29 -26 69 -26 30 0 52 5 60 15 7 8 16 15 21 15 5 0 9
-7 9 -15 0 -8 7 -15 15 -15 24 0 22 210 -2 238 -21 25 -76 34 -120 21z m97
-159 c0 -41 -31 -70 -75 -70 -28 0 -38 5 -47 26 -11 24 -9 29 15 50 19 17 40
24 68 24 37 0 39 -2 39 -30z"/>
<path d="M11193 409 c-19 -6 -33 -16 -33 -25 0 -13 6 -15 28 -8 35 10 81 9 91
-2 5 -5 11 -21 15 -36 6 -25 4 -26 -47 -33 -72 -9 -103 -22 -116 -51 -16 -35
-14 -48 10 -78 17 -22 29 -26 69 -26 30 0 52 5 60 15 7 8 16 15 21 15 5 0 9
-7 9 -15 0 -8 7 -15 15 -15 24 0 22 210 -2 238 -21 25 -76 34 -120 21z m97
-159 c0 -41 -31 -70 -75 -70 -28 0 -38 5 -47 26 -11 24 -9 29 15 50 19 17 40
24 68 24 37 0 39 -2 39 -30z"/>
<path d="M10881 358 c12 -29 33 -87 49 -128 23 -62 32 -76 51 -78 25 -3 20
-14 116 246 3 7 -3 12 -15 12 -16 0 -27 -20 -59 -111 l-40 -111 -39 108 c-33
91 -43 110 -62 112 l-22 3 21 -53z"/>
<path d="M11420 280 c0 -123 1 -130 20 -130 19 0 20 7 20 130 0 123 -1 130
-20 130 -19 0 -20 -7 -20 -130z"/>
<path d="M2303 389 c-19 -6 -33 -16 -33 -25 0 -13 6 -15 28 -8 35 10 81 9 91
-2 5 -5 11 -21 15 -36 6 -25 4 -26 -47 -33 -72 -9 -103 -22 -116 -51 -16 -35
-14 -48 10 -78 17 -22 29 -26 69 -26 30 0 52 5 60 15 16 19 30 19 30 0 0 -8 7
-15 15 -15 24 0 22 210 -2 238 -21 25 -76 34 -120 21z m97 -159 c0 -41 -31
-70 -75 -70 -28 0 -38 5 -47 26 -11 24 -9 29 15 50 19 17 40 24 68 24 37 0 39
-2 39 -30z"/>
<path d="M2620 393 c-8 -3 -25 -14 -36 -25 -21 -19 -21 -19 -27 1 -3 12 -12
21 -21 21 -14 0 -16 -18 -16 -130 0 -121 1 -130 19 -130 17 0 19 10 23 96 3
86 5 98 27 115 13 10 37 19 53 19 23 0 29 4 26 17 -3 19 -23 25 -48 16z"/>
<path d="M2773 389 c-19 -6 -33 -16 -33 -25 0 -13 6 -15 28 -8 35 10 81 9 91
-2 5 -5 11 -21 15 -36 6 -25 4 -26 -47 -33 -72 -9 -103 -22 -116 -51 -16 -35
-14 -48 10 -78 17 -22 29 -26 69 -26 30 0 52 5 60 15 16 19 30 19 30 0 0 -8 7
-15 15 -15 24 0 22 210 -2 238 -21 25 -76 34 -120 21z m97 -159 c0 -41 -31
-70 -75 -70 -28 0 -38 5 -47 26 -11 24 -9 29 15 50 19 17 40 24 68 24 37 0 39
-2 39 -30z"/>
<path d="M3085 393 c-11 -3 -27 -12 -36 -19 -14 -13 -17 -13 -22 1 -4 8 -13
15 -22 15 -13 0 -15 -20 -15 -130 0 -123 1 -130 20 -130 18 0 20 7 20 88 0 49
6 98 13 112 17 34 69 48 102 26 24 -16 25 -20 25 -121 0 -98 1 -105 20 -105
19 0 20 7 20 100 0 113 -10 145 -53 160 -31 10 -39 11 -72 3z"/>
<path d="M3343 389 c-19 -6 -33 -16 -33 -25 0 -13 6 -15 28 -8 35 10 81 9 91
-2 5 -5 11 -21 15 -36 6 -25 4 -26 -47 -33 -72 -9 -103 -22 -116 -51 -16 -35
-14 -48 10 -78 17 -22 29 -26 69 -26 30 0 52 5 60 15 16 19 30 19 30 0 0 -8 7
-15 15 -15 24 0 22 210 -2 238 -21 25 -76 34 -120 21z m97 -159 c0 -41 -31
-70 -75 -70 -28 0 -38 5 -47 26 -11 24 -9 29 15 50 19 17 40 24 68 24 37 0 39
-2 39 -30z"/>
</g>
</svg>
