<?xml version="1.0" standalone="no"?>
<!DOCTYPE svg PUBLIC "-//W3C//DTD SVG 20010904//EN"
 "http://www.w3.org/TR/2001/REC-SVG-20010904/DTD/svg10.dtd">
<svg version="1.0" xmlns="http://www.w3.org/2000/svg"
 width="1151.000000pt" height="231.000000pt" viewBox="0 0 1151.000000 231.000000"
 preserveAspectRatio="xMidYMid meet">

<g transform="translate(0.000000,231.000000) scale(0.100000,-0.100000)"
fill="#000000" stroke="none">
<path d="M177 2296 c-138 -49 -209 -193 -162 -327 36 -101 114 -159 225 -167
61 -4 76 -1 124 22 101 50 152 136 144 247 -13 171 -174 281 -331 225z"/>
<path d="M590 2261 c-6 -12 -10 -97 -10 -210 0 -178 1 -192 20 -211 19 -19 33
-20 213 -20 139 0 198 4 210 13 16 11 17 34 15 227 l-3 215 -217 3 c-207 2
-218 1 -228 -17z"/>
<path d="M1150 2261 c-6 -12 -10 -97 -10 -210 0 -178 1 -192 20 -211 19 -19
33 -20 213 -20 139 0 198 4 210 13 16 11 17 34 15 227 l-3 215 -217 3 c-207 2
-218 1 -228 -17z"/>
<path d="M47 1717 c-16 -11 -17 -34 -15 -227 l3 -215 215 -3 c193 -2 216 -1
227 15 9 12 13 71 13 210 0 180 -1 194 -20 213 -19 19 -33 20 -213 20 -139 0
-198 -4 -210 -13z"/>
<path d="M600 1710 c-19 -19 -20 -33 -20 -213 0 -139 4 -198 13 -210 11 -16
34 -17 227 -15 l215 3 3 215 c2 193 1 216 -15 227 -12 9 -71 13 -210 13 -180
0 -194 -1 -213 -20z"/>
<path d="M47 1157 c-16 -11 -17 -34 -15 -227 l3 -215 215 -3 c193 -2 216 -1
227 15 9 12 13 71 13 210 0 180 -1 194 -20 213 -19 19 -33 20 -213 20 -139 0
-198 -4 -210 -13z"/>
<path d="M600 1150 c-19 -19 -20 -33 -20 -213 0 -139 4 -198 13 -210 11 -16
34 -17 227 -15 l215 3 3 215 c2 193 1 216 -15 227 -12 9 -71 13 -210 13 -180
0 -194 -1 -213 -20z"/>
<path d="M1162 1154 c-21 -15 -22 -20 -22 -210 0 -116 4 -203 10 -215 10 -18
23 -19 218 -19 149 0 211 3 220 12 9 9 12 71 12 220 0 195 -1 208 -19 218 -12
6 -97 10 -208 10 -154 0 -193 -3 -211 -16z"/>
<path d="M8797 1153 c-12 -11 -8 -991 3 -998 7 -4 10 165 10 499 0 278 -1 506
-3 506 -2 0 -7 -3 -10 -7z"/>
<path d="M48 599 c-16 -9 -18 -30 -18 -217 0 -149 3 -211 12 -220 9 -9 71 -12
220 -12 195 0 208 1 218 19 6 12 10 97 10 208 0 154 -3 193 -16 211 -15 21
-20 22 -212 22 -115 0 -204 -5 -214 -11z"/>
<path d="M596 588 c-13 -18 -16 -57 -16 -211 0 -111 4 -196 10 -208 10 -18 23
-19 215 -19 112 0 210 3 219 6 14 5 16 34 16 218 0 152 -3 215 -12 224 -9 9
-70 12 -214 12 -198 0 -203 -1 -218 -22z"/>
</g>
</svg>
